<svg xmlns="http://www.w3.org/2000/svg" width="1200" height="420" viewBox="0 0 1200 420" role="img" aria-labelledby="title desc">
  <title id="title">Lobster OpenClaw daily progress wave</title>
  <desc id="desc">A friendly dashboard-style illustration showing a seven day progress wave for Lobster OpenClaw.</desc>
  <defs>
    <linearGradient id="bg" x1="0" y1="0" x2="1" y2="1">
      <stop offset="0" stop-color="#fff7f0"/>
      <stop offset="0.55" stop-color="#f5fbff"/>
      <stop offset="1" stop-color="#f7fff5"/>
    </linearGradient>
    <linearGradient id="wave" x1="110" y1="0" x2="1010" y2="0" gradientUnits="userSpaceOnUse">
      <stop offset="0" stop-color="#ff7564"/>
      <stop offset="0.48" stop-color="#41a7ff"/>
      <stop offset="1" stop-color="#47c97b"/>
    </linearGradient>
    <filter id="softShadow" x="-20%" y="-20%" width="140%" height="140%">
      <feDropShadow dx="0" dy="10" stdDeviation="14" flood-color="#243042" flood-opacity="0.12"/>
    </filter>
    <pattern id="dots" width="28" height="28" patternUnits="userSpaceOnUse">
      <circle cx="3" cy="3" r="2" fill="#263238" opacity="0.05"/>
    </pattern>
  </defs>

  <rect width="1200" height="420" rx="34" fill="url(#bg)"/>
  <rect width="1200" height="420" rx="34" fill="url(#dots)"/>

  <g filter="url(#softShadow)">
    <rect x="58" y="48" width="1084" height="320" rx="24" fill="#ffffff" opacity="0.92"/>
  </g>

  <g transform="translate(86 76)">
    <text x="0" y="0" fill="#27323a" font-family="Inter, ui-sans-serif, system-ui, -apple-system, BlinkMacSystemFont, Segoe UI, sans-serif" font-size="34" font-weight="800">
      Lobster OpenClaw
    </text>
    <text x="0" y="34" fill="#5f6f78" font-family="Inter, ui-sans-serif, system-ui, -apple-system, BlinkMacSystemFont, Segoe UI, sans-serif" font-size="17" font-weight="500">
      Daily research control room: build, learn, verify, clean.
    </text>
  </g>

  <g transform="translate(946 54)">
    <rect x="0" y="0" width="164" height="56" rx="18" fill="#fff1ed" stroke="#ffd1c7"/>
    <circle cx="32" cy="28" r="15" fill="#ff705f"/>
    <circle cx="27" cy="24" r="3" fill="#19252b"/>
    <circle cx="37" cy="24" r="3" fill="#19252b"/>
    <rect x="25" y="32" width="14" height="3" rx="1.5" fill="#ffffff" opacity="0.9"/>
    <text x="58" y="24" fill="#27323a" font-family="Inter, ui-sans-serif, system-ui, -apple-system, BlinkMacSystemFont, Segoe UI, sans-serif" font-size="14" font-weight="800">
      live-fixed
    </text>
    <text x="58" y="42" fill="#7a4a41" font-family="Inter, ui-sans-serif, system-ui, -apple-system, BlinkMacSystemFont, Segoe UI, sans-serif" font-size="12" font-weight="600">
      visible proof first
    </text>
  </g>

  <g transform="translate(108 148)">
    <line x1="0" y1="170" x2="904" y2="170" stroke="#dfe8ed" stroke-width="2"/>
    <line x1="0" y1="126" x2="904" y2="126" stroke="#eef3f6" stroke-width="2"/>
    <line x1="0" y1="82" x2="904" y2="82" stroke="#eef3f6" stroke-width="2"/>
    <line x1="0" y1="38" x2="904" y2="38" stroke="#eef3f6" stroke-width="2"/>

    <g opacity="0.95">
      <rect x="14" y="94" width="54" height="76" rx="12" fill="#ffe5dd"/>
      <rect x="152" y="70" width="54" height="100" rx="12" fill="#e7f4ff"/>
      <rect x="290" y="112" width="54" height="58" rx="12" fill="#eaf8ec"/>
      <rect x="428" y="52" width="54" height="118" rx="12" fill="#fff3cc"/>
      <rect x="566" y="86" width="54" height="84" rx="12" fill="#efe8ff"/>
      <rect x="704" y="42" width="54" height="128" rx="12" fill="#dff8f1"/>
      <rect x="842" y="62" width="54" height="108" rx="12" fill="#ffe1e7"/>
    </g>

    <path d="M41 124 C 95 84, 128 58, 179 82 S 267 150, 317 132 S 399 54, 455 72 S 543 132, 593 104 S 676 30, 731 52 S 822 108, 869 78"
      fill="none" stroke="url(#wave)" stroke-width="10" stroke-linecap="round"/>
    <path d="M41 124 C 95 84, 128 58, 179 82 S 267 150, 317 132 S 399 54, 455 72 S 543 132, 593 104 S 676 30, 731 52 S 822 108, 869 78"
      fill="none" stroke="#ffffff" stroke-width="4" stroke-linecap="round" opacity="0.75"/>

    <g fill="#ffffff" stroke="#263238" stroke-width="3">
      <circle cx="41" cy="124" r="9"/>
      <circle cx="179" cy="82" r="9"/>
      <circle cx="317" cy="132" r="9"/>
      <circle cx="455" cy="72" r="9"/>
      <circle cx="593" cy="104" r="9"/>
      <circle cx="731" cy="52" r="9"/>
      <circle cx="869" cy="78" r="9"/>
    </g>

    <g fill="#5f6f78" font-family="Inter, ui-sans-serif, system-ui, -apple-system, BlinkMacSystemFont, Segoe UI, sans-serif" font-size="14" font-weight="700">
      <text x="21" y="204">Mon</text>
      <text x="160" y="204">Tue</text>
      <text x="295" y="204">Wed</text>
      <text x="436" y="204">Thu</text>
      <text x="575" y="204">Fri</text>
      <text x="715" y="204">Sat</text>
      <text x="852" y="204">Sun</text>
    </g>
  </g>

  <g transform="translate(96 346)">
    <rect x="0" y="0" width="180" height="34" rx="17" fill="#fff1ed" stroke="#ffd1c7"/>
    <circle cx="22" cy="17" r="6" fill="#ff7564"/>
    <text x="38" y="22" fill="#5b403b" font-family="Inter, ui-sans-serif, system-ui, -apple-system, BlinkMacSystemFont, Segoe UI, sans-serif" font-size="13" font-weight="800">dev-fixed patches</text>

    <rect x="202" y="0" width="172" height="34" rx="17" fill="#eaf6ff" stroke="#cbe8ff"/>
    <circle cx="224" cy="17" r="6" fill="#41a7ff"/>
    <text x="240" y="22" fill="#334b5c" font-family="Inter, ui-sans-serif, system-ui, -apple-system, BlinkMacSystemFont, Segoe UI, sans-serif" font-size="13" font-weight="800">live probes</text>

    <rect x="396" y="0" width="190" height="34" rx="17" fill="#edf9ee" stroke="#ccefd1"/>
    <circle cx="418" cy="17" r="6" fill="#47c97b"/>
    <text x="434" y="22" fill="#35563c" font-family="Inter, ui-sans-serif, system-ui, -apple-system, BlinkMacSystemFont, Segoe UI, sans-serif" font-size="13" font-weight="800">memory anchors</text>

    <rect x="608" y="0" width="218" height="34" rx="17" fill="#fff6d8" stroke="#f3dfa0"/>
    <circle cx="630" cy="17" r="6" fill="#f5b83d"/>
    <text x="646" y="22" fill="#5e4c24" font-family="Inter, ui-sans-serif, system-ui, -apple-system, BlinkMacSystemFont, Segoe UI, sans-serif" font-size="13" font-weight="800">cleanup receipts</text>
  </g>

  <g transform="translate(1018 214)">
    <path d="M48 2 C 70 2, 88 18, 88 42 C 88 66, 70 82, 48 82 C 26 82, 8 66, 8 42 C 8 18, 26 2, 48 2 Z" fill="#ff705f" stroke="#3a0a0d" stroke-width="4"/>
    <circle cx="38" cy="35" r="5" fill="#101820"/>
    <circle cx="58" cy="35" r="5" fill="#101820"/>
    <path d="M36 51 C 44 58, 53 58, 61 51" fill="none" stroke="#ffffff" stroke-width="5" stroke-linecap="round"/>
    <path d="M10 36 C -8 24, -6 8, 8 5 C 20 10, 21 25, 10 36 Z" fill="#ff9a83" stroke="#3a0a0d" stroke-width="4"/>
    <path d="M86 36 C 104 24, 102 8, 88 5 C 76 10, 75 25, 86 36 Z" fill="#ff9a83" stroke="#3a0a0d" stroke-width="4"/>
    <text x="-12" y="112" fill="#5f6f78" font-family="Inter, ui-sans-serif, system-ui, -apple-system, BlinkMacSystemFont, Segoe UI, sans-serif" font-size="13" font-weight="800">
      small steps, real proof
    </text>
  </g>
</svg>
